<svg xmlns="http://www.w3.org/2000/svg" version="1.1" xmlns:xlink="http://www.w3.org/1999/xlink" xmlns:svgjs="http://svgjs.dev/svgjs" viewBox="0 0 800 800" width="800" height="800"><g stroke-width="1.5" stroke="hsla(261, 92%, 54%, 0.4)" fill="none"><rect width="66.66666666666667" height="66.66666666666667" x="0" y="0"></rect><rect width="66.66666666666667" height="66.66666666666667" x="66.66666666666667" y="0"></rect><rect width="66.66666666666667" height="66.66666666666667" x="133.33333333333334" y="0"></rect><rect width="66.66666666666667" height="66.66666666666667" x="200" y="0"></rect><rect width="66.66666666666667" height="66.66666666666667" x="266.6666666666667" y="0"></rect><rect width="66.66666666666667" height="66.66666666666667" x="333.33333333333337" y="0"></rect><rect width="66.66666666666667" height="66.66666666666667" x="400.00000000000006" y="0"></rect><rect width="66.66666666666667" height="66.66666666666667" x="466.66666666666674" y="0"></rect><rect width="66.66666666666667" height="66.66666666666667" x="533.3333333333334" y="0"></rect><rect width="66.66666666666667" height="66.66666666666667" x="600" y="0"></rect><rect width="66.66666666666667" height="66.66666666666667" x="666.6666666666666" y="0"></rect><rect width="66.66666666666667" height="66.66666666666667" x="733.3333333333333" y="0"></rect><rect width="66.66666666666667" height="66.66666666666667" x="799.9999999999999" y="0"></rect><rect width="66.66666666666667" height="66.66666666666667" x="0" y="66.66666666666667"></rect><rect width="66.66666666666667" height="66.66666666666667" x="66.66666666666667" y="66.66666666666667"></rect><rect width="66.66666666666667" height="66.66666666666667" x="133.33333333333334" y="66.66666666666667"></rect><rect width="66.66666666666667" height="66.66666666666667" x="200" y="66.66666666666667"></rect><rect width="66.66666666666667" height="66.66666666666667" x="266.6666666666667" y="66.66666666666667"></rect><rect width="66.66666666666667" height="66.66666666666667" x="333.33333333333337" y="66.66666666666667"></rect><rect width="66.66666666666667" height="66.66666666666667" x="400.00000000000006" y="66.66666666666667"></rect><rect width="66.66666666666667" height="66.66666666666667" x="466.66666666666674" y="66.66666666666667"></rect><rect width="66.66666666666667" height="66.66666666666667" x="533.3333333333334" y="66.66666666666667"></rect><rect width="66.66666666666667" height="66.66666666666667" x="600" y="66.66666666666667"></rect><rect width="66.66666666666667" height="66.66666666666667" x="666.6666666666666" y="66.66666666666667"></rect><rect width="66.66666666666667" height="66.66666666666667" x="733.3333333333333" y="66.66666666666667"></rect><rect width="66.66666666666667" height="66.66666666666667" x="799.9999999999999" y="66.66666666666667"></rect><rect width="66.66666666666667" height="66.66666666666667" x="0" y="133.33333333333334"></rect><rect width="66.66666666666667" height="66.66666666666667" x="66.66666666666667" y="133.33333333333334"></rect><rect width="66.66666666666667" height="66.66666666666667" x="133.33333333333334" y="133.33333333333334"></rect><rect width="66.66666666666667" height="66.66666666666667" x="200" y="133.33333333333334"></rect><rect width="66.66666666666667" height="66.66666666666667" x="266.6666666666667" y="133.33333333333334"></rect><rect width="66.66666666666667" height="66.66666666666667" x="333.33333333333337" y="133.33333333333334"></rect><rect width="66.66666666666667" height="66.66666666666667" x="400.00000000000006" y="133.33333333333334"></rect><rect width="66.66666666666667" height="66.66666666666667" x="466.66666666666674" y="133.33333333333334"></rect><rect width="66.66666666666667" height="66.66666666666667" x="533.3333333333334" y="133.33333333333334"></rect><rect width="66.66666666666667" height="66.66666666666667" x="600" y="133.33333333333334"></rect><rect width="66.66666666666667" height="66.66666666666667" x="666.6666666666666" y="133.33333333333334"></rect><rect width="66.66666666666667" height="66.66666666666667" x="733.3333333333333" y="133.33333333333334"></rect><rect width="66.66666666666667" height="66.66666666666667" x="799.9999999999999" y="133.33333333333334"></rect><rect width="66.66666666666667" height="66.66666666666667" x="0" y="200"></rect><rect width="66.66666666666667" height="66.66666666666667" x="66.66666666666667" y="200"></rect><rect width="66.66666666666667" height="66.66666666666667" x="133.33333333333334" y="200"></rect><rect width="66.66666666666667" height="66.66666666666667" x="200" y="200"></rect><rect width="66.66666666666667" height="66.66666666666667" x="266.6666666666667" y="200"></rect><rect width="66.66666666666667" height="66.66666666666667" x="333.33333333333337" y="200"></rect><rect width="66.66666666666667" height="66.66666666666667" x="400.00000000000006" y="200"></rect><rect width="66.66666666666667" height="66.66666666666667" x="466.66666666666674" y="200"></rect><rect width="66.66666666666667" height="66.66666666666667" x="533.3333333333334" y="200"></rect><rect width="66.66666666666667" height="66.66666666666667" x="600" y="200"></rect><rect width="66.66666666666667" height="66.66666666666667" x="666.6666666666666" y="200"></rect><rect width="66.66666666666667" height="66.66666666666667" x="733.3333333333333" y="200"></rect><rect width="66.66666666666667" height="66.66666666666667" x="799.9999999999999" y="200"></rect><rect width="66.66666666666667" height="66.66666666666667" x="0" y="266.6666666666667"></rect><rect width="66.66666666666667" height="66.66666666666667" x="66.66666666666667" y="266.6666666666667"></rect><rect width="66.66666666666667" height="66.66666666666667" x="133.33333333333334" y="266.6666666666667"></rect><rect width="66.66666666666667" height="66.66666666666667" x="200" y="266.6666666666667"></rect><rect width="66.66666666666667" height="66.66666666666667" x="266.6666666666667" y="266.6666666666667"></rect><rect width="66.66666666666667" height="66.66666666666667" x="333.33333333333337" y="266.6666666666667"></rect><rect width="66.66666666666667" height="66.66666666666667" x="400.00000000000006" y="266.6666666666667"></rect><rect width="66.66666666666667" height="66.66666666666667" x="466.66666666666674" y="266.6666666666667"></rect><rect width="66.66666666666667" height="66.66666666666667" x="533.3333333333334" y="266.6666666666667"></rect><rect width="66.66666666666667" height="66.66666666666667" x="600" y="266.6666666666667"></rect><rect width="66.66666666666667" height="66.66666666666667" x="666.6666666666666" y="266.6666666666667"></rect><rect width="66.66666666666667" height="66.66666666666667" x="733.3333333333333" y="266.6666666666667"></rect><rect width="66.66666666666667" height="66.66666666666667" x="799.9999999999999" y="266.6666666666667"></rect><rect width="66.66666666666667" height="66.66666666666667" x="0" y="333.33333333333337"></rect><rect width="66.66666666666667" height="66.66666666666667" x="66.66666666666667" y="333.33333333333337"></rect><rect width="66.66666666666667" height="66.66666666666667" x="133.33333333333334" y="333.33333333333337"></rect><rect width="66.66666666666667" height="66.66666666666667" x="200" y="333.33333333333337"></rect><rect width="66.66666666666667" height="66.66666666666667" x="266.6666666666667" y="333.33333333333337"></rect><rect width="66.66666666666667" height="66.66666666666667" x="333.33333333333337" y="333.33333333333337"></rect><rect width="66.66666666666667" height="66.66666666666667" x="400.00000000000006" y="333.33333333333337"></rect><rect width="66.66666666666667" height="66.66666666666667" x="466.66666666666674" y="333.33333333333337"></rect><rect width="66.66666666666667" height="66.66666666666667" x="533.3333333333334" y="333.33333333333337"></rect><rect width="66.66666666666667" height="66.66666666666667" x="600" y="333.33333333333337"></rect><rect width="66.66666666666667" height="66.66666666666667" x="666.6666666666666" y="333.33333333333337"></rect><rect width="66.66666666666667" height="66.66666666666667" x="733.3333333333333" y="333.33333333333337"></rect><rect width="66.66666666666667" height="66.66666666666667" x="799.9999999999999" y="333.33333333333337"></rect><rect width="66.66666666666667" height="66.66666666666667" x="0" y="400.00000000000006"></rect><rect width="66.66666666666667" height="66.66666666666667" x="66.66666666666667" y="400.00000000000006"></rect><rect width="66.66666666666667" height="66.66666666666667" x="133.33333333333334" y="400.00000000000006"></rect><rect width="66.66666666666667" height="66.66666666666667" x="200" y="400.00000000000006"></rect><rect width="66.66666666666667" height="66.66666666666667" x="266.6666666666667" y="400.00000000000006"></rect><rect width="66.66666666666667" height="66.66666666666667" x="333.33333333333337" y="400.00000000000006"></rect><rect width="66.66666666666667" height="66.66666666666667" x="400.00000000000006" y="400.00000000000006"></rect><rect width="66.66666666666667" height="66.66666666666667" x="466.66666666666674" y="400.00000000000006"></rect><rect width="66.66666666666667" height="66.66666666666667" x="533.3333333333334" y="400.00000000000006"></rect><rect width="66.66666666666667" height="66.66666666666667" x="600" y="400.00000000000006"></rect><rect width="66.66666666666667" height="66.66666666666667" x="666.6666666666666" y="400.00000000000006"></rect><rect width="66.66666666666667" height="66.66666666666667" x="733.3333333333333" y="400.00000000000006"></rect><rect width="66.66666666666667" height="66.66666666666667" x="799.9999999999999" y="400.00000000000006"></rect><rect width="66.66666666666667" height="66.66666666666667" x="0" y="466.66666666666674"></rect><rect width="66.66666666666667" height="66.66666666666667" x="66.66666666666667" y="466.66666666666674"></rect><rect width="66.66666666666667" height="66.66666666666667" x="133.33333333333334" y="466.66666666666674"></rect><rect width="66.66666666666667" height="66.66666666666667" x="200" y="466.66666666666674"></rect><rect width="66.66666666666667" height="66.66666666666667" x="266.6666666666667" y="466.66666666666674"></rect><rect width="66.66666666666667" height="66.66666666666667" x="333.33333333333337" y="466.66666666666674"></rect><rect width="66.66666666666667" height="66.66666666666667" x="400.00000000000006" y="466.66666666666674"></rect><rect width="66.66666666666667" height="66.66666666666667" x="466.66666666666674" y="466.66666666666674"></rect><rect width="66.66666666666667" height="66.66666666666667" x="533.3333333333334" y="466.66666666666674"></rect><rect width="66.66666666666667" height="66.66666666666667" x="600" y="466.66666666666674"></rect><rect width="66.66666666666667" height="66.66666666666667" x="666.6666666666666" y="466.66666666666674"></rect><rect width="66.66666666666667" height="66.66666666666667" x="733.3333333333333" y="466.66666666666674"></rect><rect width="66.66666666666667" height="66.66666666666667" x="799.9999999999999" y="466.66666666666674"></rect><rect width="66.66666666666667" height="66.66666666666667" x="0" y="533.3333333333334"></rect><rect width="66.66666666666667" height="66.66666666666667" x="66.66666666666667" y="533.3333333333334"></rect><rect width="66.66666666666667" height="66.66666666666667" x="133.33333333333334" y="533.3333333333334"></rect><rect width="66.66666666666667" height="66.66666666666667" x="200" y="533.3333333333334"></rect><rect width="66.66666666666667" height="66.66666666666667" x="266.6666666666667" y="533.3333333333334"></rect><rect width="66.66666666666667" height="66.66666666666667" x="333.33333333333337" y="533.3333333333334"></rect><rect width="66.66666666666667" height="66.66666666666667" x="400.00000000000006" y="533.3333333333334"></rect><rect width="66.66666666666667" height="66.66666666666667" x="466.66666666666674" y="533.3333333333334"></rect><rect width="66.66666666666667" height="66.66666666666667" x="533.3333333333334" y="533.3333333333334"></rect><rect width="66.66666666666667" height="66.66666666666667" x="600" y="533.3333333333334"></rect><rect width="66.66666666666667" height="66.66666666666667" x="666.6666666666666" y="533.3333333333334"></rect><rect width="66.66666666666667" height="66.66666666666667" x="733.3333333333333" y="533.3333333333334"></rect><rect width="66.66666666666667" height="66.66666666666667" x="799.9999999999999" y="533.3333333333334"></rect><rect width="66.66666666666667" height="66.66666666666667" x="0" y="600"></rect><rect width="66.66666666666667" height="66.66666666666667" x="66.66666666666667" y="600"></rect><rect width="66.66666666666667" height="66.66666666666667" x="133.33333333333334" y="600"></rect><rect width="66.66666666666667" height="66.66666666666667" x="200" y="600"></rect><rect width="66.66666666666667" height="66.66666666666667" x="266.6666666666667" y="600"></rect><rect width="66.66666666666667" height="66.66666666666667" x="333.33333333333337" y="600"></rect><rect width="66.66666666666667" height="66.66666666666667" x="400.00000000000006" y="600"></rect><rect width="66.66666666666667" height="66.66666666666667" x="466.66666666666674" y="600"></rect><rect width="66.66666666666667" height="66.66666666666667" x="533.3333333333334" y="600"></rect><rect width="66.66666666666667" height="66.66666666666667" x="600" y="600"></rect><rect width="66.66666666666667" height="66.66666666666667" x="666.6666666666666" y="600"></rect><rect width="66.66666666666667" height="66.66666666666667" x="733.3333333333333" y="600"></rect><rect width="66.66666666666667" height="66.66666666666667" x="799.9999999999999" y="600"></rect><rect width="66.66666666666667" height="66.66666666666667" x="0" y="666.6666666666666"></rect><rect width="66.66666666666667" height="66.66666666666667" x="66.66666666666667" y="666.6666666666666"></rect><rect width="66.66666666666667" height="66.66666666666667" x="133.33333333333334" y="666.6666666666666"></rect><rect width="66.66666666666667" height="66.66666666666667" x="200" y="666.6666666666666"></rect><rect width="66.66666666666667" height="66.66666666666667" x="266.6666666666667" y="666.6666666666666"></rect><rect width="66.66666666666667" height="66.66666666666667" x="333.33333333333337" y="666.6666666666666"></rect><rect width="66.66666666666667" height="66.66666666666667" x="400.00000000000006" y="666.6666666666666"></rect><rect width="66.66666666666667" height="66.66666666666667" x="466.66666666666674" y="666.6666666666666"></rect><rect width="66.66666666666667" height="66.66666666666667" x="533.3333333333334" y="666.6666666666666"></rect><rect width="66.66666666666667" height="66.66666666666667" x="600" y="666.6666666666666"></rect><rect width="66.66666666666667" height="66.66666666666667" x="666.6666666666666" y="666.6666666666666"></rect><rect width="66.66666666666667" height="66.66666666666667" x="733.3333333333333" y="666.6666666666666"></rect><rect width="66.66666666666667" height="66.66666666666667" x="799.9999999999999" y="666.6666666666666"></rect><rect width="66.66666666666667" height="66.66666666666667" x="0" y="733.3333333333333"></rect><rect width="66.66666666666667" height="66.66666666666667" x="66.66666666666667" y="733.3333333333333"></rect><rect width="66.66666666666667" height="66.66666666666667" x="133.33333333333334" y="733.3333333333333"></rect><rect width="66.66666666666667" height="66.66666666666667" x="200" y="733.3333333333333"></rect><rect width="66.66666666666667" height="66.66666666666667" x="266.6666666666667" y="733.3333333333333"></rect><rect width="66.66666666666667" height="66.66666666666667" x="333.33333333333337" y="733.3333333333333"></rect><rect width="66.66666666666667" height="66.66666666666667" x="400.00000000000006" y="733.3333333333333"></rect><rect width="66.66666666666667" height="66.66666666666667" x="466.66666666666674" y="733.3333333333333"></rect><rect width="66.66666666666667" height="66.66666666666667" x="533.3333333333334" y="733.3333333333333"></rect><rect width="66.66666666666667" height="66.66666666666667" x="600" y="733.3333333333333"></rect><rect width="66.66666666666667" height="66.66666666666667" x="666.6666666666666" y="733.3333333333333"></rect><rect width="66.66666666666667" height="66.66666666666667" x="733.3333333333333" y="733.3333333333333"></rect><rect width="66.66666666666667" height="66.66666666666667" x="799.9999999999999" y="733.3333333333333"></rect><rect width="66.66666666666667" height="66.66666666666667" x="0" y="799.9999999999999"></rect><rect width="66.66666666666667" height="66.66666666666667" x="66.66666666666667" y="799.9999999999999"></rect><rect width="66.66666666666667" height="66.66666666666667" x="133.33333333333334" y="799.9999999999999"></rect><rect width="66.66666666666667" height="66.66666666666667" x="200" y="799.9999999999999"></rect><rect width="66.66666666666667" height="66.66666666666667" x="266.6666666666667" y="799.9999999999999"></rect><rect width="66.66666666666667" height="66.66666666666667" x="333.33333333333337" y="799.9999999999999"></rect><rect width="66.66666666666667" height="66.66666666666667" x="400.00000000000006" y="799.9999999999999"></rect><rect width="66.66666666666667" height="66.66666666666667" x="466.66666666666674" y="799.9999999999999"></rect><rect width="66.66666666666667" height="66.66666666666667" x="533.3333333333334" y="799.9999999999999"></rect><rect width="66.66666666666667" height="66.66666666666667" x="600" y="799.9999999999999"></rect><rect width="66.66666666666667" height="66.66666666666667" x="666.6666666666666" y="799.9999999999999"></rect><rect width="66.66666666666667" height="66.66666666666667" x="733.3333333333333" y="799.9999999999999"></rect><rect width="66.66666666666667" height="66.66666666666667" x="799.9999999999999" y="799.9999999999999"></rect></g></svg>